{"title":"Harlee Ft. Akon - Dream Warriors [Director's Cut] 1080p [Sbyky]","uid":9751577,"size":97395408,"categoryP":"video","categoryS":"music_videos","magnet":"?xt=urn:btih:fa341f933c74852ccbd8d1493ba6201cb7399c87&amp;dn=Harlee+Ft.+Akon+-+Dream+Warriors+%5BDirector%27s+Cut%5D+1080p+%5BSbyky%5D&amp;tr=udp%3A%2F%2Ftracker.openbittorrent.com%3A80&amp;tr=udp%3A%2F%2Fopen.demonii.com%3A1337&amp;tr=udp%3A%2F%2Ftracker.coppersurfer.tk%3A6969&amp;tr=udp%3A%2F%2Fexodus.desync.com%3A6969","seeders":1,"leechers":0,"uploader":"Sbyky","files":1,"time":1394671902,"description":"\n\nGeneral\nComplete name                            : Harlee Ft. Akon - Dream Warriors [Director's Cut] 1080p [Sbyky].MP4\nFormat                                   : MPEG-4\nFormat profile                           : Base Media\nCodec ID                                 : isom\nFile size                                : 92.9 MiB\nDuration                                 : 4mn 38s\nOverall bit rate mode                    : Variable\nOverall bit rate                         : 2 799 Kbps\nEncoded date                             : UTC 2014-03-08 16:37:48\nTagged date                              : UTC 2014-03-08 16:37:48\n\nVideo\nID                                       : 1\nFormat                                   : AVC\nFormat/Info                              : Advanced Video Codec\nFormat profile                           : &lt;a class=&quot;__cf_email__&quot; href=&quot;/cdn-cgi/l/email-protection&quot; data-cfemail=&quot;3c74555b547c7008120c&quot;&gt;[email&amp;#160;protected]&lt;/a&gt;&lt;script cf-hash='f9e31' type=&quot;text/javascript&quot;&gt;\n/* &lt;![CDATA[ */!function(){try{var t=&quot;currentScript&quot;in document?document.currentScript:function(){for(var t=document.getElementsByTagName(&quot;script&quot;),e=t.length;e--;)if(t[e].getAttribute(&quot;cf-hash&quot;))return t[e]}();if(t&amp;&amp;t.previousSibling){var e,r,n,i,c=t.previousSibling,a=c.getAttribute(&quot;data-cfemail&quot;);if(a){for(e=&quot;&quot;,r=parseInt(a.substr(0,2),16),n=2;a.length-n;n+=2)i=parseInt(a.substr(n,2),16)^r,e+=String.fromCharCode(i);e=document.createTextNode(e),c.parentNode.replaceChild(e,c)}}}catch(u){}}();/* ]]&gt; */&lt;/script&gt;\nFormat settings, CABAC                   : Yes\nFormat settings, ReFrames                : 3 frames\nCodec ID                                 : avc1\nCodec ID/Info                            : Advanced Video Coding\nDuration                                 : 4mn 38s\nDuration_LastFrame                       : -32ms\nBit rate                                 : 2 671 Kbps\nWidth                                    : 1 920 pixels\nHeight                                   : 1 080 pixels\nDisplay aspect ratio                     : 16:9\nFrame rate mode                          : Constant\nFrame rate                               : 29.970 fps\nColor space                              : YUV\nChroma subsampling                       : 4:2:0\nBit depth                                : 8 bits\nScan type                                : Progressive\nBits/(Pixel*Frame)                       : 0.043\nStream size                              : 88.6 MiB (95%)\nEncoded date                             : UTC 2014-03-08 16:37:48\nTagged date                              : UTC 2014-03-08 16:37:48\n\nAudio\nID                                       : 2\nFormat                                   : AAC\nFormat/Info                              : Advanced Audio Codec\nFormat profile                           : LC\nCodec ID                                 : 40\nDuration                                 : 4mn 38s\nBit rate mode                            : Variable\nBit rate                                 : 126 Kbps\nChannel(s)                               : 2 channels\nChannel positions                        : Front: L R\nSampling rate                            : 44.1 KHz\nCompression mode                         : Lossy\nStream size                              : 4.17 MiB (4%)\nEncoded date                             : UTC 2014-03-08 16:36:46\nTagged date                              : UTC 2014-03-08 16:36:46\n\nShared By Sbyky\n","torrent":{"xt":"urn:btih:fa341f933c74852ccbd8d1493ba6201cb7399c87","amp;dn":"Harlee+Ft.+Akon+-+Dream+Warriors+%5BDirector%27s+Cut%5D+1080p+%5BSbyky%5D","amp;tr":["udp%3A%2F%2Ftracker.openbittorrent.com%3A80","udp%3A%2F%2Fopen.demonii.com%3A1337","udp%3A%2F%2Ftracker.coppersurfer.tk%3A6969","udp%3A%2F%2Fexodus.desync.com%3A6969"],"infoHash":"fa341f933c74852ccbd8d1493ba6201cb7399c87","infoHashBuffer":{"type":"Buffer","data":[250,52,31,147,60,116,133,44,203,216,209,73,59,166,32,28,183,57,156,135]},"announce":[],"urlList":[]}}